<svg xmlns="http://www.w3.org/2000/svg" fill="currentColor" x="0" y="0" viewBox="0 0 48 48" height="48px">
  <path
    d="M22.6 34h3V22h-3ZM24 18.3q.7 0 1.2-.4.4-.5.4-1.2t-.4-1.2q-.5-.5-1.2-.5t-1.2.5q-.4.5-.4 1.2t.4 1.2q.5.4 1.2.4ZM24 44q-4.3 0-7.9-1.5-3.7-1.5-6.4-4.3-2.6-2.7-4.2-6.3Q4 28.3 4 24q0-4.2 1.5-7.9Q7 12.5 9.8 9.8q2.6-2.7 6.3-4.3Q19.7 4 24 4q4.2 0 7.9 1.5 3.6 1.6 6.3 4.3 2.7 2.7 4.3 6.3Q44 19.8 44 24q0 4.3-1.5 7.9-1.6 3.6-4.3 6.4-2.7 2.7-6.4 4.2Q28.3 44 24 44Zm0-20Zm0 17q7 0 12-5t5-12q0-7-5-12T24 7q-7 0-12 5T7 24q0 7 5 12t12 5Z" />
</svg>
