<svg xmlns="http://www.w3.org/2000/svg" fill="currentColor" x="0" y="0" viewBox="0 0 48 48" height="48px">
  <path
    d="M36.4 44q-2.4 0-4-1.7-1.8-1.6-1.8-4l.1-.8.3-.9-15.2-8.8q-.8.8-1.9 1.4-1 .5-2.2.5-2.3 0-4-1.7Q6 26.4 6 24t1.7-4q1.6-1.7 4-1.7 1.2 0 2.2.4 1 .5 1.9 1.4l15.1-8.8-.2-.8v-.8q0-2.4 1.6-4Q34 4 36.3 4q2.5 0 4.1 1.7 1.6 1.6 1.6 4t-1.6 4q-1.6 1.7-4 1.7-1.2 0-2.3-.4-1-.3-1.8-1.2l-15.1 8.4.1 1 .1.8v.8l-.3.8L32.3 34q.8-.6 1.8-1 1-.5 2.3-.5 2.4 0 4 1.6Q42 36 42 38.4q0 2.4-1.6 4-1.6 1.7-4 1.7Zm0-31.6q1.1 0 1.9-.8.8-.8.8-1.9 0-1.1-.8-2-.8-.7-2-.7-1.1 0-1.9.8-.8.8-.8 1.9 0 1.2.8 2 .8.7 2 .7ZM11.7 26.7q1.2 0 2-.8.7-.8.7-1.9 0-1.1-.8-2-.8-.7-1.9-.7-1.1 0-2 .8-.7.8-.7 1.9 0 1.1.8 2 .8.7 1.9.7ZM36.4 41q1.1 0 1.9-.8.8-.8.8-1.9 0-1.1-.8-2-.8-.7-2-.7-1.1 0-1.9.8-.8.8-.8 1.9 0 1.2.8 2 .8.7 2 .7Zm0-31.3ZM11.7 24Zm24.7 14.3Z" />
</svg>
