<svg xmlns="http://www.w3.org/2000/svg" fill="currentColor" x="0" y="0" viewBox="0 0 48 48" height="48px">
  <path
    d="m44.4 19.6-1.2-2.5-2.5-1.1 2.5-1.2 1.1-2.5 1.2 2.5L48 16l-2.5 1.1ZM38 11l-1.8-3.7-3.7-1.8 3.8-1.7L38 0l1.8 3.7 3.7 1.8-3.8 1.7ZM18 44q-1.7 0-2.9-1.2Q14 41.7 14 40h8.2q0 1.6-1.2 2.8Q19.7 44 18 44Zm-8.1-7.1v-3h16.2v3Zm.3-6.1q-3.3-2.2-5.3-5.4Q3 22.2 3 18.1q0-6 4.5-10.5Q11.9 3.2 18 3.2t10.6 4.4Q33 12.1 33 18.1q0 4.1-1.9 7.3-1.9 3.3-5.3 5.4Zm1-3h13.6q2.4-1.6 3.8-4.2 1.4-2.5 1.4-5.5 0-4.9-3.5-8.4-3.6-3.5-8.5-3.5-5 0-8.5 3.5T6 18q0 3 1.4 5.5 1.4 2.6 3.8 4.2Zm6.8 0Z" />
</svg>
